<mxfile host="app.diagrams.net" modified="2023-07-13T01:40:12.682Z" agent="Mozilla/5.0 (Windows NT 10.0; Win64; x64) AppleWebKit/537.36 (KHTML, like Gecko) Chrome/114.0.0.0 Safari/537.36" etag="ML-tpuwKYtAhuqlYn33R" version="21.6.2" type="github">
  <diagram name="Page-1" id="e3a06f82-3646-2815-327d-82caf3d4e204">
    <mxGraphModel dx="853" dy="933" grid="1" gridSize="10" guides="1" tooltips="1" connect="1" arrows="1" fold="1" page="1" pageScale="1.5" pageWidth="1169" pageHeight="826" background="none" math="0" shadow="0">
      <root>
        <mxCell id="0" style=";html=1;" />
        <mxCell id="1" style=";html=1;" parent="0" />
        <mxCell id="x9bdqeFJQxe7NECGImG6-19" value="" style="rounded=1;whiteSpace=wrap;html=1;fillColor=#f5f5f5;strokeColor=#666666;fontColor=#333333;" vertex="1" parent="1">
          <mxGeometry x="270" y="20" width="460" height="530" as="geometry" />
        </mxCell>
        <mxCell id="x9bdqeFJQxe7NECGImG6-41" value="" style="rounded=1;whiteSpace=wrap;html=1;fillColor=#d5e8d4;strokeColor=#82b366;" vertex="1" parent="1">
          <mxGeometry x="295" y="405" width="200" height="125" as="geometry" />
        </mxCell>
        <mxCell id="x9bdqeFJQxe7NECGImG6-24" value="" style="rounded=1;whiteSpace=wrap;html=1;fillColor=#d5e8d4;strokeColor=#82b366;" vertex="1" parent="1">
          <mxGeometry x="295" y="40" width="300" height="330" as="geometry" />
        </mxCell>
        <mxCell id="x9bdqeFJQxe7NECGImG6-36" value="" style="rounded=1;whiteSpace=wrap;html=1;fillColor=#fff2cc;strokeColor=#d6b656;" vertex="1" parent="1">
          <mxGeometry x="310" y="156" width="260" height="98" as="geometry" />
        </mxCell>
        <mxCell id="x9bdqeFJQxe7NECGImG6-37" value="" style="rounded=1;whiteSpace=wrap;html=1;fillColor=#fff2cc;strokeColor=#d6b656;" vertex="1" parent="1">
          <mxGeometry x="310" y="264" width="260" height="90" as="geometry" />
        </mxCell>
        <mxCell id="x9bdqeFJQxe7NECGImG6-35" value="" style="rounded=1;whiteSpace=wrap;html=1;fillColor=#fff2cc;strokeColor=#d6b656;" vertex="1" parent="1">
          <mxGeometry x="310" y="51" width="260" height="95" as="geometry" />
        </mxCell>
        <mxCell id="6a7d8f32e03d9370-60" value="Prod-Digital Ocean Droplets" style="whiteSpace=wrap;html=1;fillColor=#dae8fc;fontSize=14;strokeColor=#6c8ebf;verticalAlign=top;" parent="1" vertex="1">
          <mxGeometry x="1380" y="20" width="330" height="220" as="geometry" />
        </mxCell>
        <mxCell id="x9bdqeFJQxe7NECGImG6-12" value="" style="rounded=0;whiteSpace=wrap;html=1;" vertex="1" parent="1">
          <mxGeometry x="1410" y="64" width="250" height="136" as="geometry" />
        </mxCell>
        <mxCell id="6a7d8f32e03d9370-57" value="Networks&lt;br&gt;" style="whiteSpace=wrap;html=1;fillColor=#FFD470;gradientColor=none;fontSize=14;strokeColor=none;verticalAlign=top;fontStyle=1" parent="1" vertex="1">
          <mxGeometry x="40.5" y="20" width="199.5" height="260" as="geometry" />
        </mxCell>
        <mxCell id="6a7d8f32e03d9370-13" value="Unifi USG" style="verticalLabelPosition=bottom;aspect=fixed;html=1;verticalAlign=top;shape=mxgraph.citrix.router;fontSize=14;fontStyle=1;" parent="1" vertex="1">
          <mxGeometry x="860" y="175" width="90.41" height="60" as="geometry" />
        </mxCell>
        <mxCell id="6a7d8f32e03d9370-62" value="ABLAB" style="text;strokeColor=none;fillColor=none;html=1;fontSize=24;fontStyle=1;verticalAlign=middle;align=center;" parent="1" vertex="1">
          <mxGeometry x="487" y="10" width="861" height="40" as="geometry" />
        </mxCell>
        <mxCell id="x9bdqeFJQxe7NECGImG6-1" value="MGMT - 10.100.0.0" style="text;html=1;strokeColor=none;fillColor=none;align=center;verticalAlign=middle;whiteSpace=wrap;rounded=0;fontSize=14;fontStyle=1" vertex="1" parent="1">
          <mxGeometry x="50" y="68" width="180" height="32" as="geometry" />
        </mxCell>
        <mxCell id="x9bdqeFJQxe7NECGImG6-2" value="Main - 10.100.10.0" style="text;html=1;strokeColor=none;fillColor=none;align=center;verticalAlign=middle;whiteSpace=wrap;rounded=0;fontSize=14;fontStyle=1" vertex="1" parent="1">
          <mxGeometry x="75" y="126" width="130" height="30" as="geometry" />
        </mxCell>
        <mxCell id="x9bdqeFJQxe7NECGImG6-4" value="IoT - 10.100.60.0" style="text;html=1;strokeColor=none;fillColor=none;align=center;verticalAlign=middle;whiteSpace=wrap;rounded=0;fontSize=14;fontStyle=1" vertex="1" parent="1">
          <mxGeometry x="80" y="180" width="115" height="30" as="geometry" />
        </mxCell>
        <mxCell id="x9bdqeFJQxe7NECGImG6-5" value="Guest - 10.100.100.0" style="text;html=1;strokeColor=none;fillColor=none;align=center;verticalAlign=middle;whiteSpace=wrap;rounded=0;fontSize=14;fontStyle=1" vertex="1" parent="1">
          <mxGeometry x="70" y="234" width="140" height="30" as="geometry" />
        </mxCell>
        <mxCell id="x9bdqeFJQxe7NECGImG6-6" value="" style="shape=image;html=1;verticalAlign=top;verticalLabelPosition=bottom;labelBackgroundColor=#ffffff;imageAspect=0;aspect=fixed;image=https://cdn1.iconfinder.com/data/icons/operating-system-flat-1/30/ubuntu-128.png" vertex="1" parent="1">
          <mxGeometry x="1420" y="99" width="66" height="66" as="geometry" />
        </mxCell>
        <mxCell id="x9bdqeFJQxe7NECGImG6-7" value="" style="shape=image;html=1;verticalAlign=top;verticalLabelPosition=bottom;labelBackgroundColor=#ffffff;imageAspect=0;aspect=fixed;image=https://cdn1.iconfinder.com/data/icons/unicons-line-vol-3/24/docker-128.png" vertex="1" parent="1">
          <mxGeometry x="1500" y="88" width="56" height="56" as="geometry" />
        </mxCell>
        <mxCell id="x9bdqeFJQxe7NECGImG6-9" value="" style="shape=image;html=1;verticalAlign=top;verticalLabelPosition=bottom;labelBackgroundColor=#ffffff;imageAspect=0;aspect=fixed;image=https://cdn1.iconfinder.com/data/icons/unicons-line-vol-3/24/docker-128.png" vertex="1" parent="1">
          <mxGeometry x="1500" y="144" width="56" height="56" as="geometry" />
        </mxCell>
        <mxCell id="x9bdqeFJQxe7NECGImG6-10" value="" style="shape=image;html=1;verticalAlign=top;verticalLabelPosition=bottom;labelBackgroundColor=#ffffff;imageAspect=0;aspect=fixed;image=https://cdn1.iconfinder.com/data/icons/unicons-line-vol-3/24/docker-128.png" vertex="1" parent="1">
          <mxGeometry x="1580" y="90" width="56" height="56" as="geometry" />
        </mxCell>
        <mxCell id="x9bdqeFJQxe7NECGImG6-11" value="" style="shape=image;html=1;verticalAlign=top;verticalLabelPosition=bottom;labelBackgroundColor=#ffffff;imageAspect=0;aspect=fixed;image=https://cdn1.iconfinder.com/data/icons/unicons-line-vol-3/24/docker-128.png" vertex="1" parent="1">
          <mxGeometry x="1580" y="144" width="56" height="56" as="geometry" />
        </mxCell>
        <mxCell id="x9bdqeFJQxe7NECGImG6-13" value="AB-LAB-PROD" style="text;html=1;strokeColor=none;fillColor=none;align=center;verticalAlign=middle;whiteSpace=wrap;rounded=0;" vertex="1" parent="1">
          <mxGeometry x="1486" y="68" width="120" height="30" as="geometry" />
        </mxCell>
        <mxCell id="x9bdqeFJQxe7NECGImG6-14" value="HP Mini PC Proxmox&lt;br style=&quot;font-size: 13px;&quot;&gt;&amp;nbsp;Cluster" style="sketch=0;aspect=fixed;pointerEvents=1;shadow=0;dashed=0;html=1;strokeColor=none;labelPosition=center;verticalLabelPosition=bottom;verticalAlign=top;align=center;fillColor=#00188D;shape=mxgraph.mscae.enterprise.cluster_server;fontSize=13;" vertex="1" parent="1">
          <mxGeometry x="620" y="64" width="80" height="100" as="geometry" />
        </mxCell>
        <mxCell id="x9bdqeFJQxe7NECGImG6-15" value="" style="endArrow=none;html=1;rounded=0;entryX=0.412;entryY=0.996;entryDx=0;entryDy=0;entryPerimeter=0;" edge="1" parent="1" source="x9bdqeFJQxe7NECGImG6-16" target="6a7d8f32e03d9370-13">
          <mxGeometry width="50" height="50" relative="1" as="geometry">
            <mxPoint x="720" y="280" as="sourcePoint" />
            <mxPoint x="620" y="300" as="targetPoint" />
          </mxGeometry>
        </mxCell>
        <mxCell id="x9bdqeFJQxe7NECGImG6-16" value="Unifi 8 Port PoE" style="image;html=1;image=img/lib/clip_art/networking/Switch_128x128.png;fontStyle=1;fontSize=14;" vertex="1" parent="1">
          <mxGeometry x="842.7" y="430" width="120" height="120" as="geometry" />
        </mxCell>
        <mxCell id="x9bdqeFJQxe7NECGImG6-18" value="" style="endArrow=none;html=1;rounded=0;entryX=-0.002;entryY=0.415;entryDx=0;entryDy=0;exitX=1.025;exitY=0.172;exitDx=0;exitDy=0;exitPerimeter=0;entryPerimeter=0;fontSize=13;" edge="1" parent="1" source="x9bdqeFJQxe7NECGImG6-14" target="x9bdqeFJQxe7NECGImG6-16">
          <mxGeometry width="50" height="50" relative="1" as="geometry">
            <mxPoint x="720" y="470" as="sourcePoint" />
            <mxPoint x="770" y="420" as="targetPoint" />
          </mxGeometry>
        </mxCell>
        <mxCell id="x9bdqeFJQxe7NECGImG6-49" value="MGMT" style="edgeLabel;html=1;align=center;verticalAlign=middle;resizable=0;points=[];fontStyle=1;fontSize=12;" vertex="1" connectable="0" parent="x9bdqeFJQxe7NECGImG6-18">
          <mxGeometry x="0.0447" y="-4" relative="1" as="geometry">
            <mxPoint y="-1" as="offset" />
          </mxGeometry>
        </mxCell>
        <mxCell id="x9bdqeFJQxe7NECGImG6-20" value="&lt;b&gt;container-vm-01&lt;/b&gt;" style="image;sketch=0;aspect=fixed;html=1;points=[];align=center;fontSize=12;image=img/lib/mscae/Virtual_Machine_2.svg;" vertex="1" parent="1">
          <mxGeometry x="325.22" y="64" width="65.22" height="60" as="geometry" />
        </mxCell>
        <mxCell id="x9bdqeFJQxe7NECGImG6-22" value="&lt;b&gt;container-vm-02&lt;/b&gt;" style="image;sketch=0;aspect=fixed;html=1;points=[];align=center;fontSize=12;image=img/lib/mscae/Virtual_Machine_2.svg;" vertex="1" parent="1">
          <mxGeometry x="325.22" y="164" width="65.22" height="60" as="geometry" />
        </mxCell>
        <mxCell id="x9bdqeFJQxe7NECGImG6-23" value="container-vm-03" style="image;sketch=0;aspect=fixed;html=1;points=[];align=center;fontSize=12;image=img/lib/mscae/Virtual_Machine_2.svg;fontStyle=1" vertex="1" parent="1">
          <mxGeometry x="325.22" y="270" width="59.79" height="55" as="geometry" />
        </mxCell>
        <mxCell id="x9bdqeFJQxe7NECGImG6-25" value="" style="shape=image;html=1;verticalAlign=top;verticalLabelPosition=bottom;labelBackgroundColor=#ffffff;imageAspect=0;aspect=fixed;image=https://cdn1.iconfinder.com/data/icons/unicons-line-vol-3/24/docker-128.png" vertex="1" parent="1">
          <mxGeometry x="420" y="73.5" width="50" height="50" as="geometry" />
        </mxCell>
        <mxCell id="x9bdqeFJQxe7NECGImG6-26" value="" style="shape=image;html=1;verticalAlign=top;verticalLabelPosition=bottom;labelBackgroundColor=#ffffff;imageAspect=0;aspect=fixed;image=https://cdn1.iconfinder.com/data/icons/unicons-line-vol-3/24/docker-128.png" vertex="1" parent="1">
          <mxGeometry x="487" y="169" width="50" height="50" as="geometry" />
        </mxCell>
        <mxCell id="x9bdqeFJQxe7NECGImG6-27" value="" style="shape=image;html=1;verticalAlign=top;verticalLabelPosition=bottom;labelBackgroundColor=#ffffff;imageAspect=0;aspect=fixed;image=https://cdn1.iconfinder.com/data/icons/unicons-line-vol-3/24/docker-128.png" vertex="1" parent="1">
          <mxGeometry x="415" y="272.5" width="50" height="50" as="geometry" />
        </mxCell>
        <mxCell id="x9bdqeFJQxe7NECGImG6-28" value="" style="shape=image;html=1;verticalAlign=top;verticalLabelPosition=bottom;labelBackgroundColor=#ffffff;imageAspect=0;aspect=fixed;image=https://cdn1.iconfinder.com/data/icons/unicons-line-vol-3/24/docker-128.png" vertex="1" parent="1">
          <mxGeometry x="487" y="73.5" width="50" height="50" as="geometry" />
        </mxCell>
        <mxCell id="x9bdqeFJQxe7NECGImG6-29" value="" style="shape=image;html=1;verticalAlign=top;verticalLabelPosition=bottom;labelBackgroundColor=#ffffff;imageAspect=0;aspect=fixed;image=https://cdn1.iconfinder.com/data/icons/unicons-line-vol-3/24/docker-128.png" vertex="1" parent="1">
          <mxGeometry x="415" y="169" width="50" height="50" as="geometry" />
        </mxCell>
        <mxCell id="x9bdqeFJQxe7NECGImG6-30" value="" style="shape=image;html=1;verticalAlign=top;verticalLabelPosition=bottom;labelBackgroundColor=#ffffff;imageAspect=0;aspect=fixed;image=https://cdn1.iconfinder.com/data/icons/unicons-line-vol-3/24/docker-128.png" vertex="1" parent="1">
          <mxGeometry x="487" y="272.5" width="50" height="50" as="geometry" />
        </mxCell>
        <mxCell id="x9bdqeFJQxe7NECGImG6-31" value="DC-01" style="image;aspect=fixed;perimeter=ellipsePerimeter;html=1;align=center;shadow=0;dashed=0;spacingTop=3;image=img/lib/active_directory/domain_controller.svg;" vertex="1" parent="1">
          <mxGeometry x="325.22" y="422.5" width="56" height="80" as="geometry" />
        </mxCell>
        <mxCell id="x9bdqeFJQxe7NECGImG6-32" value="" style="endArrow=none;dashed=1;html=1;dashPattern=1 3;strokeWidth=2;rounded=0;" edge="1" parent="1" source="x9bdqeFJQxe7NECGImG6-22" target="x9bdqeFJQxe7NECGImG6-20">
          <mxGeometry width="50" height="50" relative="1" as="geometry">
            <mxPoint x="320" y="580" as="sourcePoint" />
            <mxPoint x="370" y="530" as="targetPoint" />
          </mxGeometry>
        </mxCell>
        <mxCell id="x9bdqeFJQxe7NECGImG6-33" value="" style="endArrow=none;dashed=1;html=1;dashPattern=1 3;strokeWidth=2;rounded=0;exitX=0.453;exitY=1.054;exitDx=0;exitDy=0;exitPerimeter=0;" edge="1" parent="1" source="x9bdqeFJQxe7NECGImG6-22" target="x9bdqeFJQxe7NECGImG6-23">
          <mxGeometry width="50" height="50" relative="1" as="geometry">
            <mxPoint x="419.99870967741947" y="425" as="sourcePoint" />
            <mxPoint x="416.65999999999997" y="375" as="targetPoint" />
          </mxGeometry>
        </mxCell>
        <mxCell id="x9bdqeFJQxe7NECGImG6-39" value="DC-02" style="image;aspect=fixed;perimeter=ellipsePerimeter;html=1;align=center;shadow=0;dashed=0;spacingTop=3;image=img/lib/active_directory/domain_controller.svg;" vertex="1" parent="1">
          <mxGeometry x="420" y="422.5" width="56" height="80" as="geometry" />
        </mxCell>
        <mxCell id="x9bdqeFJQxe7NECGImG6-40" value="" style="endArrow=none;dashed=1;html=1;dashPattern=1 3;strokeWidth=2;rounded=0;entryX=0;entryY=0.5;entryDx=0;entryDy=0;" edge="1" parent="1" source="x9bdqeFJQxe7NECGImG6-31" target="x9bdqeFJQxe7NECGImG6-39">
          <mxGeometry width="50" height="50" relative="1" as="geometry">
            <mxPoint x="280" y="850" as="sourcePoint" />
            <mxPoint x="330" y="800" as="targetPoint" />
          </mxGeometry>
        </mxCell>
        <mxCell id="x9bdqeFJQxe7NECGImG6-42" value="" style="rounded=1;whiteSpace=wrap;html=1;fillColor=#d5e8d4;strokeColor=#82b366;" vertex="1" parent="1">
          <mxGeometry x="520" y="410" width="180" height="120" as="geometry" />
        </mxCell>
        <mxCell id="x9bdqeFJQxe7NECGImG6-51" value="&lt;b style=&quot;font-size: 18px;&quot;&gt;WAN/ISP&lt;/b&gt;" style="ellipse;shape=cloud;whiteSpace=wrap;html=1;fontSize=18;" vertex="1" parent="1">
          <mxGeometry x="1030" y="20" width="160" height="120" as="geometry" />
        </mxCell>
        <mxCell id="x9bdqeFJQxe7NECGImG6-52" value="" style="endArrow=none;html=1;rounded=0;entryX=0.217;entryY=0.81;entryDx=0;entryDy=0;entryPerimeter=0;" edge="1" parent="1" source="6a7d8f32e03d9370-13" target="x9bdqeFJQxe7NECGImG6-51">
          <mxGeometry width="50" height="50" relative="1" as="geometry">
            <mxPoint x="990" y="190" as="sourcePoint" />
            <mxPoint x="1040" y="140" as="targetPoint" />
          </mxGeometry>
        </mxCell>
        <mxCell id="x9bdqeFJQxe7NECGImG6-53" value="WIN-TESTVM01" style="image;sketch=0;aspect=fixed;html=1;points=[];align=center;fontSize=14;image=img/lib/mscae/VirtualMachineWindows.svg;fontStyle=1" vertex="1" parent="1">
          <mxGeometry x="585" y="439.5" width="50" height="46" as="geometry" />
        </mxCell>
        <mxCell id="x9bdqeFJQxe7NECGImG6-54" value="" style="endArrow=none;dashed=1;html=1;dashPattern=1 3;strokeWidth=2;rounded=0;exitX=1;exitY=0.5;exitDx=0;exitDy=0;" edge="1" parent="1" source="x9bdqeFJQxe7NECGImG6-41">
          <mxGeometry width="50" height="50" relative="1" as="geometry">
            <mxPoint x="487" y="535.5" as="sourcePoint" />
            <mxPoint x="530" y="470" as="targetPoint" />
          </mxGeometry>
        </mxCell>
        <mxCell id="x9bdqeFJQxe7NECGImG6-55" value="&lt;font color=&quot;#000000&quot; style=&quot;font-size: 14px;&quot;&gt;HP Microserver TRUENAS&lt;/font&gt;" style="fontColor=#0066CC;verticalAlign=top;verticalLabelPosition=bottom;labelPosition=center;align=center;html=1;outlineConnect=0;fillColor=#CCCCCC;strokeColor=#6881B3;gradientColor=none;gradientDirection=north;strokeWidth=2;shape=mxgraph.networks.nas_filer;fontSize=14;" vertex="1" parent="1">
          <mxGeometry x="295" y="710" width="110" height="60" as="geometry" />
        </mxCell>
        <mxCell id="x9bdqeFJQxe7NECGImG6-56" value="" style="endArrow=none;html=1;rounded=0;exitX=0.75;exitY=0;exitDx=0;exitDy=0;exitPerimeter=0;" edge="1" parent="1" source="x9bdqeFJQxe7NECGImG6-55" target="x9bdqeFJQxe7NECGImG6-16">
          <mxGeometry width="50" height="50" relative="1" as="geometry">
            <mxPoint x="710" y="630" as="sourcePoint" />
            <mxPoint x="760" y="580" as="targetPoint" />
          </mxGeometry>
        </mxCell>
        <mxCell id="x9bdqeFJQxe7NECGImG6-57" value="MGMT" style="edgeLabel;html=1;align=center;verticalAlign=middle;resizable=0;points=[];fontSize=13;fontStyle=1" vertex="1" connectable="0" parent="x9bdqeFJQxe7NECGImG6-56">
          <mxGeometry x="-0.0588" y="-1" relative="1" as="geometry">
            <mxPoint as="offset" />
          </mxGeometry>
        </mxCell>
        <mxCell id="x9bdqeFJQxe7NECGImG6-58" value="" style="shape=image;html=1;verticalAlign=top;verticalLabelPosition=bottom;labelBackgroundColor=#ffffff;imageAspect=0;aspect=fixed;image=https://cdn1.iconfinder.com/data/icons/operating-system-flat-1/30/ubuntu-128.png" vertex="1" parent="1">
          <mxGeometry x="625" y="219" width="70" height="70" as="geometry" />
        </mxCell>
        <mxCell id="x9bdqeFJQxe7NECGImG6-59" value="" style="shape=image;html=1;verticalAlign=top;verticalLabelPosition=bottom;labelBackgroundColor=#ffffff;imageAspect=0;aspect=fixed;image=https://cdn4.iconfinder.com/data/icons/social-media-2273/64/social_media_network_online_windows-128.png" vertex="1" parent="1">
          <mxGeometry x="620" y="310" width="70" height="70" as="geometry" />
        </mxCell>
        <mxCell id="x9bdqeFJQxe7NECGImG6-60" value="PI-hole&amp;nbsp;" style="shape=image;html=1;verticalAlign=top;verticalLabelPosition=bottom;labelBackgroundColor=#ffffff;imageAspect=0;aspect=fixed;image=https://cdn1.iconfinder.com/data/icons/fruit-136/64/Fruit_iconfree_Filled_Outline_raspberry-healthy-organic-food-fruit_icon-128.png;fontStyle=1;fontSize=14;" vertex="1" parent="1">
          <mxGeometry x="690" y="730" width="75" height="75" as="geometry" />
        </mxCell>
        <mxCell id="x9bdqeFJQxe7NECGImG6-61" value="" style="endArrow=none;html=1;rounded=0;entryX=0.5;entryY=1;entryDx=0;entryDy=0;" edge="1" parent="1" source="x9bdqeFJQxe7NECGImG6-60" target="x9bdqeFJQxe7NECGImG6-16">
          <mxGeometry width="50" height="50" relative="1" as="geometry">
            <mxPoint x="930" y="580" as="sourcePoint" />
            <mxPoint x="980" y="530" as="targetPoint" />
          </mxGeometry>
        </mxCell>
        <mxCell id="x9bdqeFJQxe7NECGImG6-64" value="" style="rounded=1;whiteSpace=wrap;html=1;fillColor=#d0cee2;strokeColor=#56517e;" vertex="1" parent="1">
          <mxGeometry x="1330" y="422.5" width="390" height="287.5" as="geometry" />
        </mxCell>
        <mxCell id="x9bdqeFJQxe7NECGImG6-62" value="Unifi AP Pro&lt;br style=&quot;font-size: 14px;&quot;&gt;" style="image;points=[];aspect=fixed;html=1;align=center;shadow=0;dashed=0;image=img/lib/allied_telesis/wireless/Access_Point_Indoor.svg;fontStyle=1;fontSize=14;" vertex="1" parent="1">
          <mxGeometry x="1360" y="462.7" width="36.6" height="54.6" as="geometry" />
        </mxCell>
        <mxCell id="x9bdqeFJQxe7NECGImG6-63" value="" style="endArrow=none;html=1;rounded=0;" edge="1" parent="1" source="x9bdqeFJQxe7NECGImG6-16" target="x9bdqeFJQxe7NECGImG6-62">
          <mxGeometry width="50" height="50" relative="1" as="geometry">
            <mxPoint x="1180" y="550" as="sourcePoint" />
            <mxPoint x="1230" y="500" as="targetPoint" />
          </mxGeometry>
        </mxCell>
        <mxCell id="x9bdqeFJQxe7NECGImG6-65" value="Laptops" style="sketch=0;pointerEvents=1;shadow=0;dashed=0;html=1;strokeColor=none;fillColor=#505050;labelPosition=center;verticalLabelPosition=bottom;verticalAlign=top;outlineConnect=0;align=center;shape=mxgraph.office.devices.laptop;fontSize=14;" vertex="1" parent="1">
          <mxGeometry x="1460" y="473" width="58" height="34" as="geometry" />
        </mxCell>
        <mxCell id="x9bdqeFJQxe7NECGImG6-66" value="Smart outlets" style="outlineConnect=0;dashed=0;verticalLabelPosition=bottom;verticalAlign=top;align=center;html=1;shape=mxgraph.aws3.sensor;fillColor=#5294CF;gradientColor=none;fontSize=14;" vertex="1" parent="1">
          <mxGeometry x="1569.75" y="462.7" width="60.25" height="70" as="geometry" />
        </mxCell>
        <mxCell id="x9bdqeFJQxe7NECGImG6-67" value="" style="verticalLabelPosition=bottom;verticalAlign=top;html=1;shadow=0;dashed=0;strokeWidth=1;shape=mxgraph.android.phone2;strokeColor=#c0c0c0;" vertex="1" parent="1">
          <mxGeometry x="1460" y="580" width="29.75" height="60" as="geometry" />
        </mxCell>
        <mxCell id="x9bdqeFJQxe7NECGImG6-68" value="Smart bulbs" style="shape=image;html=1;verticalAlign=top;verticalLabelPosition=bottom;labelBackgroundColor=#ffffff;imageAspect=0;aspect=fixed;image=https://cdn4.iconfinder.com/data/icons/success-filloutline/64/idea-read-knowledge-light_bulb-thinking-128.png;fontStyle=1;fontSize=14;" vertex="1" parent="1">
          <mxGeometry x="1568" y="580" width="62" height="62" as="geometry" />
        </mxCell>
        <mxCell id="x9bdqeFJQxe7NECGImG6-69" value="Wi-fi" style="text;html=1;strokeColor=none;fillColor=none;align=center;verticalAlign=middle;whiteSpace=wrap;rounded=0;fontStyle=1;fontSize=14;" vertex="1" parent="1">
          <mxGeometry x="1498" y="430" width="60" height="30" as="geometry" />
        </mxCell>
        <mxCell id="x9bdqeFJQxe7NECGImG6-70" value="Pi-cluster01" style="shape=image;html=1;verticalAlign=top;verticalLabelPosition=bottom;labelBackgroundColor=#ffffff;imageAspect=0;aspect=fixed;image=https://cdn1.iconfinder.com/data/icons/fruit-136/64/Fruit_iconfree_Filled_Outline_raspberry-healthy-organic-food-fruit_icon-128.png;fontStyle=1;fontSize=14;" vertex="1" parent="1">
          <mxGeometry x="970" y="660" width="75" height="75" as="geometry" />
        </mxCell>
        <mxCell id="x9bdqeFJQxe7NECGImG6-71" value="Pi-cluster02" style="shape=image;html=1;verticalAlign=top;verticalLabelPosition=bottom;labelBackgroundColor=#ffffff;imageAspect=0;aspect=fixed;image=https://cdn1.iconfinder.com/data/icons/fruit-136/64/Fruit_iconfree_Filled_Outline_raspberry-healthy-organic-food-fruit_icon-128.png;fontStyle=1;fontSize=14;" vertex="1" parent="1">
          <mxGeometry x="970" y="760" width="75" height="75" as="geometry" />
        </mxCell>
        <mxCell id="x9bdqeFJQxe7NECGImG6-72" value="Pi-cluster03" style="shape=image;html=1;verticalAlign=top;verticalLabelPosition=bottom;labelBackgroundColor=#ffffff;imageAspect=0;aspect=fixed;image=https://cdn1.iconfinder.com/data/icons/fruit-136/64/Fruit_iconfree_Filled_Outline_raspberry-healthy-organic-food-fruit_icon-128.png;fontStyle=1;fontSize=14;" vertex="1" parent="1">
          <mxGeometry x="970" y="870" width="75" height="75" as="geometry" />
        </mxCell>
        <mxCell id="x9bdqeFJQxe7NECGImG6-73" value="" style="rounded=1;whiteSpace=wrap;html=1;" vertex="1" parent="1">
          <mxGeometry x="950.41" y="650" width="269.59" height="370" as="geometry" />
        </mxCell>
        <mxCell id="x9bdqeFJQxe7NECGImG6-74" value="" style="fontColor=#0066CC;verticalAlign=top;verticalLabelPosition=bottom;labelPosition=center;align=center;html=1;outlineConnect=0;fillColor=#CCCCCC;strokeColor=#6881B3;gradientColor=none;gradientDirection=north;strokeWidth=2;shape=mxgraph.networks.desktop_pc;" vertex="1" parent="1">
          <mxGeometry x="1380" y="582" width="30" height="60" as="geometry" />
        </mxCell>
      </root>
    </mxGraphModel>
  </diagram>
</mxfile>
